# Blender v2.79 (sub 0) OBJ File: ''
# www.blender.org
mtllib TankTop8.mtl
o Plane.000_Plane.000
v 2.961732 4.099664 0.896625
v 3.348526 3.451621 0.909400
v 3.641278 2.879539 0.919096
v 4.082114 2.059641 0.933684
v 4.205548 1.830071 0.937769
v 4.384892 0.909867 0.943889
v 4.574632 -0.063680 0.950363
v -3.839386 -0.029780 0.676881
v -3.827183 3.002388 0.676318
v -3.904263 3.083423 0.673787
v -3.901398 3.795594 0.673655
v -3.385878 3.949307 0.690363
v -1.367861 4.052455 0.755920
v 1.142201 4.238111 0.837442
v 5.034544 0.938664 0.964994
v 4.858748 1.840674 0.958995
v 5.157494 2.041114 1.492102
v 5.348537 1.016939 1.578823
v 1.119791 4.204059 0.836725
v -1.340645 4.022073 0.756814
v -1.391459 4.413612 1.049006
v 1.133091 4.518737 1.131025
v 2.903349 4.068347 0.894737
v 3.835451 4.274106 1.218935
v 4.131096 3.526735 2.135106
v 3.696986 4.064015 2.130022
v 3.579764 3.894275 2.548704
v 3.974572 3.417298 2.548214
v 1.065042 4.304046 2.179901
v 1.013315 4.128144 2.663845
v 4.196896 2.606517 2.845627
v 3.765715 3.188657 2.933867
v 3.655201 3.070235 3.204903
v 4.103643 2.489318 3.144853
v 4.497268 2.974013 2.147117
v 4.368758 2.832828 2.518628
v -3.409128 -3.864685 2.037064
v -3.377659 -3.554181 2.523559
v -3.352232 -3.330075 2.817296
v -3.347966 -3.079513 2.969133
v -3.469982 -4.370017 0.984228
v -1.567950 4.135599 2.094378
v -1.628230 3.931943 2.578051
v 5.433952 0.937521 2.241453
v 5.085035 1.888029 2.185549
v 4.976585 1.781974 2.498290
v 5.395884 0.882816 2.538393
v 4.963445 2.125559 2.177369
v 4.853862 2.011807 2.503071
v -3.367477 3.780776 2.036001
v -3.337546 3.486996 2.522636
v 5.565913 -0.067416 2.292887
v 5.539090 -0.067256 2.571058
v 4.737754 2.065707 0.954991
v 5.042443 2.286412 1.457340
v -3.651646 3.821707 0.681764
v -3.824093 3.770289 0.676176
v -4.169204 3.835481 0.958906
v -3.918673 3.996543 0.966998
v -3.318767 3.920963 0.692553
v -3.435062 4.307449 0.982619
v 4.305632 2.869396 0.940692
v 4.631550 3.162482 1.333201
v 3.282495 3.433117 0.907260
v 4.336050 3.630369 1.235409
v 5.220328 -0.066267 0.971351
v 5.550651 -0.067470 1.670573
v -4.248479 3.013656 1.012235
v -4.475854 -0.027153 0.995010
v 2.928277 -4.213893 0.898166
v 1.107690 -4.337675 0.839032
v -1.400796 -4.131798 0.757438
v -3.417919 -4.012393 0.691839
v -3.932184 -3.854530 0.675074
v -3.929318 -3.142359 0.674942
v -3.851588 -3.061949 0.677443
v 4.377063 -1.035667 0.944249
v 4.190319 -1.954395 0.938470
v 4.065041 -2.182965 0.934470
v 3.617620 -2.999283 0.920186
v 3.320273 -3.568988 0.910702
v 5.026461 -1.069667 0.965366
v 5.339817 -1.150245 1.579225
v 5.140536 -2.172877 1.492882
v 4.843411 -1.970231 0.959701
v 1.085554 -4.303442 0.838302
v 1.096322 -4.618107 1.132718
v -1.427301 -4.492643 1.050658
v -1.373338 -4.101637 0.758321
v 3.606319 -4.185057 0.920195
v 3.800563 -4.395228 1.220541
v 4.102214 -3.649930 2.136437
v 3.946578 -3.539080 2.549504
v 3.547944 -4.012855 2.550170
v 3.663795 -4.183691 2.131552
v 0.979696 -4.225994 2.665394
v 1.030005 -4.402486 2.181515
v 3.374879 -3.680967 2.943469
v 3.285223 -3.509033 3.147214
v 1.028319 -3.532582 3.205132
v 1.007100 -3.769169 3.163267
v 4.472823 -3.100176 2.148244
v 4.345455 -2.957821 2.519702
v -3.323432 3.016736 2.968003
v -1.660185 -4.008515 2.579523
v -1.601547 -4.212829 2.095925
v 5.425868 -1.071275 2.241825
v 5.388242 -1.016154 2.538745
v 4.961720 -1.911914 2.498975
v 5.069312 -2.018956 2.186273
v 4.945814 -2.255502 2.178180
v 4.837152 -2.140747 2.503840
v 5.023514 -2.417252 1.458212
v 4.720611 -2.194282 0.955781
v -3.682651 -3.882656 0.683193
v -3.951075 -4.055224 0.968491
v -4.200301 -3.892149 0.960339
v -3.854678 -3.829849 0.677585
v -3.350581 -3.984591 0.694019
v 4.605584 -3.290024 1.334398
v 4.282033 -2.994463 0.941780
v 3.990566 -3.552903 0.932483
v 4.306327 -3.755548 1.236778
v -4.272960 -3.069691 1.013363
v 5.328045 -0.066307 3.099418
v 4.953432 0.907201 3.127665
v 4.868715 0.874112 3.129413
v 5.262057 -0.066036 3.128433
v 3.308487 2.399402 3.125045
v 2.877795 2.962631 3.180772
v 2.545698 3.277272 3.210730
v 1.080734 3.314769 3.189727
v -1.342943 3.176261 3.115099
v -3.242774 2.968005 2.970160
v -3.390951 -0.031166 2.966267
v -3.266917 -3.031434 2.971273
v -1.368931 -3.254960 3.119549
v 1.053554 -3.412995 3.194232
v 2.521782 -3.387343 3.122620
v 3.591986 -3.078347 3.134570
v 4.029099 -2.518652 3.020060
v 3.702029 -1.854746 3.000321
v 3.810532 -1.670229 3.001235
v 4.862805 -1.002993 3.079193
v 3.820836 1.549767 3.082246
v 3.713822 1.735154 3.081267
v 4.511703 -1.925785 3.020335
v 4.623443 -1.733619 3.021326
v 3.310095 3.392839 3.235275
v 1.056463 3.434561 3.200581
v -1.413762 3.249871 3.120353
v 3.632328 -3.189229 3.134815
v 4.087334 -2.611993 3.015974
v -3.312925 3.267217 2.816488
v 4.738883 -1.794464 2.843069
v 4.622766 -1.999142 2.844076
v 5.417938 -0.066698 2.945117
v 5.097744 -1.029732 2.893619
v 4.175421 -2.730010 2.846616
v 3.739568 -3.308619 2.935072
v -1.519990 -3.560182 3.081067
v 4.638344 1.872062 2.843359
v 4.752810 1.666452 2.842427
v 5.105505 0.898869 2.893262
v 3.404035 3.563939 2.942126
v 1.037042 3.671297 3.161887
v -1.491647 3.482679 3.079761
v 4.524044 1.799695 3.101255
v 4.634233 1.606634 3.102317
v -3.478639 -0.030812 2.963921
v -1.440340 -3.327995 3.124831
v 4.947252 -1.036765 3.077458
v 3.231290 -2.371641 2.507762
v 2.047193 -2.366871 2.469275
v 2.053991 -0.677911 2.468962
v 3.238087 -0.682681 2.507449
v 1.502890 0.713344 2.962080
v 1.604350 0.439238 2.965464
v 0.570166 -1.745511 2.932541
v 0.353767 -1.714221 2.925497
v -0.045364 -1.476232 2.912450
v -0.212755 -1.278680 2.906946
v -0.203746 0.960114 2.906532
v -0.034770 1.156311 2.911962
v -0.513238 -0.466900 2.896924
v -0.533321 -0.157972 2.896173
v 0.366262 1.391078 2.924922
v 0.582907 1.420623 2.931954
v 1.666314 0.142012 2.967572
v 1.686396 -0.166914 2.968323
v -0.451276 -0.764127 2.899031
v -2.919370 -2.886056 1.405324
v -2.917701 -2.888026 1.405379
v 1.663828 -0.475670 2.967687
v 1.599476 -0.772389 2.965689
v 1.495812 -1.045668 2.962406
v 0.157697 1.301830 2.918171
v -0.349815 -1.038231 2.902416
v 1.187843 -1.481201 2.952533
v 0.995376 -1.626719 2.946324
v 0.786812 -1.715966 2.939573
v 0.799307 1.389333 2.938998
v 1.356820 -1.285004 2.957963
v -0.510753 0.150780 2.896809
v 1.365830 0.953793 2.957548
v 0.145927 -1.623296 2.918713
v 1.007148 1.298409 2.945781
v 1.198439 1.151345 2.952045
v -0.342738 0.720778 2.902090
v -0.446400 0.447499 2.898807
v -2.925634 -2.914943 1.405130
v -2.927791 -2.914631 1.405060
vn 0.0325 -0.0003 -0.9995
vn 0.8588 0.1398 -0.4928
vn -0.0118 0.6385 -0.7696
vn 0.0823 0.6970 -0.7123
vn 0.7005 0.5745 0.4234
vn 0.0960 0.9234 0.3716
vn 0.7331 0.4950 0.4665
vn 0.7528 0.4966 0.4321
vn -0.9983 0.0112 0.0573
vn -0.0760 0.9312 0.3565
vn 0.8724 0.3784 0.3094
vn 0.7822 0.4495 0.4315
vn -0.2131 0.8721 0.4404
vn 0.9818 0.1435 0.1244
vn 0.8031 0.4229 0.4198
vn 0.7511 0.3298 -0.5719
vn -0.3266 0.6916 -0.6442
vn -0.0048 0.5985 -0.8011
vn 0.6937 0.2939 -0.6576
vn 0.2766 0.1688 -0.9461
vn 0.3436 0.3272 -0.8803
vn 0.8851 0.1435 -0.4427
vn -0.6277 0.0063 -0.7784
vn -0.5256 0.0231 -0.8504
vn 0.8577 -0.1469 -0.4928
vn -0.0169 -0.6386 -0.7693
vn 0.0699 -0.7359 -0.6735
vn 0.6959 -0.5799 0.4236
vn 0.0885 -0.9240 0.3719
vn 0.0639 -0.5063 0.8600
vn 0.7487 -0.5025 0.4323
vn -0.4806 0.7226 0.4968
vn -0.8981 0.1142 0.4246
vn -0.0835 -0.9304 0.3568
vn 0.8693 -0.3853 0.3096
vn 0.7785 -0.4556 0.4316
vn -0.2119 -0.8657 0.4535
vn 0.9806 -0.1514 0.1244
vn 0.7996 -0.4292 0.4200
vn 0.7484 -0.3361 -0.5718
vn -0.3321 -0.6892 -0.6440
vn -0.0097 -0.5987 -0.8009
vn 0.6913 -0.2998 -0.6575
vn 0.5640 -0.3783 -0.7340
vn 0.6051 -0.2709 -0.7487
vn 0.8839 -0.1508 -0.4427
vn -0.6277 -0.0016 -0.7784
vn -0.5257 -0.0192 -0.8504
vn 0.1871 0.0601 0.9805
vn -0.0160 -0.0028 0.9999
vn -0.0240 0.0090 0.9997
vn -0.0170 -0.0964 0.9952
vn -0.0252 -0.0953 0.9951
vn 0.1737 0.0654 0.9826
vn -0.0160 0.0125 0.9998
vn 0.8706 -0.4526 0.1928
vn 0.9846 -0.1609 -0.0677
vn -0.1250 -0.9314 0.3418
vn 0.8568 -0.4645 0.2240
vn 0.9611 -0.2738 0.0365
vn -0.0667 -0.9727 0.2225
vn -0.4864 -0.7185 0.4971
vn 0.7952 -0.5518 0.2515
vn 0.0789 -0.9723 0.2201
vn 0.7525 -0.6099 0.2485
vn 0.8742 0.4456 0.1927
vn 0.9859 0.1530 -0.0678
vn -0.1228 0.9288 0.3497
vn 0.8605 0.4577 0.2239
vn 0.9633 0.2660 0.0364
vn -0.0588 0.9732 0.2221
vn 0.7996 0.5454 0.2513
vn 0.0867 0.9717 0.2197
vn 0.7574 0.6039 0.2483
vn -0.9925 0.0656 0.1028
vn -0.8990 -0.1068 0.4247
vn -0.2774 -0.5896 -0.7586
vn 0.7055 -0.3836 0.5959
vn 0.8491 -0.2300 0.4754
vn 0.6656 -0.4158 0.6197
vn 0.5707 -0.5079 0.6452
vn 0.0904 -0.7384 0.6683
vn -0.0824 -0.7318 0.6766
vn 0.7206 -0.3727 0.5846
vn 0.6779 -0.4039 0.6143
vn -0.1994 -0.7274 0.6566
vn -0.2726 0.5915 -0.7588
vn 0.7085 0.3781 0.5958
vn 0.8510 0.2234 0.4753
vn 0.6689 0.4107 0.6196
vn 0.5748 0.5036 0.6450
vn 0.0964 0.7379 0.6680
vn -0.0765 0.7326 0.6763
vn 0.7236 0.3671 0.5845
vn 0.6811 0.3987 0.6141
vn -0.1957 0.7306 0.6541
vn -0.1450 0.3480 0.9262
vn 0.7734 0.4538 0.4426
vn 0.7912 0.3870 0.4735
vn -0.0438 0.1575 0.9865
vn 0.0514 0.6246 0.7792
vn 0.6123 0.5910 0.5252
vn 0.8142 0.2946 0.5002
vn 0.7738 0.4362 0.4594
vn -0.8967 0.0548 0.4392
vn -0.1485 -0.3491 0.9253
vn 0.6709 -0.4135 0.6155
vn 0.7184 -0.3782 0.5838
vn -0.0461 -0.1699 0.9844
vn 0.5396 -0.5353 0.6498
vn 0.6724 -0.4074 0.6179
vn 0.7794 -0.3034 0.5481
vn 0.6963 -0.3998 0.5962
vn -0.8971 -0.0474 0.4392
vn -0.0244 0.0959 0.9951
vn -0.0138 -0.1112 0.9937
vn -0.0186 0.0425 0.9989
vn -0.0175 -0.0750 0.9970
vn -0.0280 -0.0698 0.9972
vn -0.0267 0.0000 0.9996
vn -0.0658 0.1085 0.9919
vn -0.0240 -0.0084 0.9997
vn 0.1755 -0.1083 0.9785
vn -0.0154 -0.1104 0.9938
vn 0.0306 0.2366 0.9711
vn -0.0233 0.0295 0.9993
vn -0.0267 0.0006 0.9996
vn -0.0652 -0.1058 0.9922
usemtl metal.001
s off
f 1//1 2//1 3//1 4//1 5//1 6//1 7//1 8//1 9//1 10//1 11//1 12//1 13//1 14//1
f 15//2 16//2 17//2 18//2
f 19//3 20//3 21//3 22//3
f 23//4 19//4 22//4 24//4
f 25//5 26//5 27//5 28//5
f 26//6 29//6 30//6 27//6
f 31//7 32//7 33//7 34//7
f 35//8 25//8 28//8 36//8
f 37//9 38//9 39//9 40//9 41//9
f 29//10 42//10 43//10 30//10
f 44//11 45//11 46//11 47//11
f 48//12 35//12 36//12 49//12
f 42//13 50//13 51//13 43//13
f 52//14 44//14 47//14 53//14
f 45//15 48//15 49//15 46//15
f 16//16 54//16 55//16 17//16
f 56//17 57//17 58//17 59//17
f 20//18 60//18 61//18 21//18
f 54//19 62//19 63//19 55//19
f 64//20 23//20 24//20 65//20
f 62//21 64//21 65//21 63//21
f 66//22 15//22 18//22 67//22
f 57//23 9//23 68//23 58//23
f 9//24 8//24 69//24 68//24
f 70//1 71//1 72//1 73//1 74//1 75//1 76//1 8//1 7//1 77//1 78//1 79//1 80//1 81//1
f 82//25 83//25 84//25 85//25
f 86//26 87//26 88//26 89//26
f 90//27 91//27 87//27 86//27
f 92//28 93//28 94//28 95//28
f 95//29 94//29 96//29 97//29
f 98//30 99//30 100//30 101//30
f 102//31 103//31 93//31 92//31
f 61//32 58//32 104//32
f 68//33 104//33 58//33
f 97//34 96//34 105//34 106//34
f 107//35 108//35 109//35 110//35
f 111//36 112//36 103//36 102//36
f 106//37 105//37 38//37 37//37
f 52//38 53//38 108//38 107//38
f 110//39 109//39 112//39 111//39
f 85//40 84//40 113//40 114//40
f 115//41 116//41 117//41 118//41
f 89//42 88//42 41//42 119//42
f 114//43 113//43 120//43 121//43
f 122//44 123//44 91//44 90//44
f 121//45 120//45 123//45 122//45
f 66//46 67//46 83//46 82//46
f 118//47 117//47 124//47 76//47
f 76//48 124//48 69//48 8//48
f 125//49 126//49 127//49 128//49
f 129//50 130//50 131//50 132//50 133//50 134//50 135//50 136//50 137//50 138//50 139//50 140//50 141//50 142//50 143//50 144//50 128//50 127//50 145//50 146//50
f 147//51 148//51 143//51 142//51
f 149//52 150//52 132//52 131//52
f 150//53 151//53 133//53 132//53
f 152//54 153//54 141//54 140//54
f 153//55 147//55 142//55 141//55
f 84//56 110//56 111//56 113//56
f 67//57 52//57 107//57 83//57
f 88//58 106//58 37//58 41//58
f 113//59 111//59 102//59 120//59
f 83//60 107//60 110//60 84//60
f 87//61 97//61 106//61 88//61
f 117//62 41//62 40//62
f 120//63 102//63 92//63 123//63
f 91//64 95//64 97//64 87//64
f 123//65 92//65 95//65 91//65
f 17//66 55//66 48//66 45//66
f 67//67 18//67 44//67 52//67
f 21//68 61//68 50//68 42//68
f 55//69 63//69 35//69 48//69
f 18//70 17//70 45//70 44//70
f 22//71 21//71 42//71 29//71
f 63//72 65//72 25//72 35//72
f 24//73 22//73 29//73 26//73
f 65//74 24//74 26//74 25//74
f 50//75 61//75 104//75 154//75 51//75
f 124//76 117//76 40//76
f 119//77 41//77 116//77 115//77
f 109//78 155//78 156//78 112//78
f 53//79 157//79 158//79 108//79
f 103//80 159//80 160//80 93//80
f 93//81 160//81 98//81 94//81
f 94//82 98//82 101//82 96//82
f 96//83 101//83 161//83 105//83
f 108//84 158//84 155//84 109//84
f 112//85 156//85 159//85 103//85
f 105//86 161//86 39//86 38//86
f 60//87 56//87 59//87 61//87
f 46//88 49//88 162//88 163//88
f 53//89 47//89 164//89 157//89
f 36//90 28//90 32//90 31//90
f 28//91 27//91 165//91 32//91
f 27//92 30//92 166//92 165//92
f 30//93 43//93 167//93 166//93
f 47//94 46//94 163//94 164//94
f 49//95 36//95 31//95 162//95
f 43//96 51//96 154//96 167//96
f 167//97 154//97 104//97 151//97
f 162//98 31//98 34//98 168//98
f 164//99 163//99 169//99 126//99
f 166//100 167//100 151//100 150//100
f 165//101 166//101 150//101 149//101
f 32//102 165//102 149//102 33//102
f 157//103 164//103 126//103 125//103
f 163//104 162//104 168//104 169//104
f 68//105 69//105 170//105 104//105
f 161//106 171//106 40//106 39//106
f 156//107 147//107 153//107 159//107
f 158//108 172//108 148//108 155//108
f 101//109 100//109 171//109 161//109
f 160//110 152//110 99//110 98//110
f 159//111 153//111 152//111 160//111
f 157//112 125//112 172//112 158//112
f 155//113 148//113 147//113 156//113
f 124//114 40//114 170//114 69//114
f 171//115 100//115 138//115 137//115
f 34//116 33//116 130//116 129//116
f 99//117 152//117 140//117 139//117
f 168//118 34//118 129//118 146//118
f 148//119 172//119 144//119 143//119
f 104//120 170//120 135//120 134//120
f 40//121 171//121 137//121 136//121
f 169//122 168//122 146//122 145//122
f 172//123 125//123 128//123 144//123
f 33//124 149//124 131//124 130//124
f 100//125 99//125 139//125 138//125
f 126//126 169//126 145//126 127//126
f 170//127 40//127 136//127 135//127
f 151//128 104//128 134//128 133//128
f 173//1 174//1 175//1 176//1
